<svg data-v-423bf9ae="" xmlns="http://www.w3.org/2000/svg" viewBox="0 0 542 90" class="iconLeft"><!----><!----><!----><g data-v-423bf9ae="" id="f602f807-754b-4090-8d01-7b3557e1007a" fill="white" transform="matrix(5.633802890777588,0,0,5.633802890777588,172.72225952148438,-17.05633544921875)"><path d="M12.91 16.19L11.59 13.78L3.28 13.78L1.97 16.19L0.44 16.19L6.56 5.69L8.31 5.69L14.44 16.19L12.91 16.19ZM3.94 12.69L10.94 12.69L7.44 6.56L3.94 12.69ZM20.34 16.34L20.34 16.34Q19.03 16.34 18.12 16.16Q17.20 15.98 16.63 15.53Q16.05 15.09 15.79 14.34Q15.53 13.60 15.53 12.47L15.53 12.47Q15.53 11.18 15.79 10.33Q16.05 9.49 16.63 8.99Q17.20 8.49 18.12 8.29Q19.03 8.09 20.34 8.09L20.34 8.09Q21.28 8.09 21.97 8.23Q22.65 8.37 23.14 8.63Q23.63 8.89 23.94 9.26Q24.24 9.63 24.41 10.03Q24.59 10.44 24.65 10.99Q24.72 11.53 24.72 12.14L24.72 12.14L24.61 12.58L16.84 12.58Q16.84 13.48 17.02 14.06Q17.20 14.64 17.61 14.90Q18.02 15.17 18.69 15.24Q19.36 15.31 20.34 15.31L20.34 15.31Q21.25 15.31 21.84 15.26Q22.43 15.21 22.78 15.07Q23.13 14.92 23.27 14.67Q23.41 14.41 23.41 14L23.41 14L24.72 14Q24.72 14.64 24.50 15.08Q24.27 15.53 23.76 15.81Q23.25 16.08 22.41 16.21Q21.57 16.34 20.34 16.34ZM20.34 9.19L20.34 9.19Q19.69 9.19 19.17 9.21Q18.66 9.24 18.27 9.33Q17.88 9.43 17.61 9.60Q17.34 9.78 17.17 10.01Q17.00 10.25 16.92 10.67Q16.84 11.10 16.84 11.70L16.84 11.70L23.41 11.70Q23.41 10.90 23.24 10.45Q23.06 9.99 22.70 9.70Q22.33 9.41 21.75 9.30Q21.16 9.19 20.34 9.19ZM33.03 12.69L34.13 12.69Q34.13 13.69 33.96 14.37Q33.80 15.04 33.41 15.44Q33.02 15.85 32.40 16.02Q31.77 16.19 30.84 16.19L30.84 16.19Q29.95 16.19 29.34 16.05Q28.73 15.91 28.36 15.59Q27.98 15.26 27.82 14.71Q27.65 14.16 27.65 13.34L27.65 13.34L27.65 9.39L26.03 9.39L26.03 8.31L27.65 8.31L27.65 6.16L28.96 6.16L28.96 8.31L33.91 8.31L33.91 9.39L28.96 9.39L28.96 13.34Q28.96 14 29.06 14.36Q29.16 14.71 29.38 14.88Q29.60 15.04 29.96 15.07Q30.32 15.09 30.84 15.09L30.84 15.09Q31.25 15.09 31.57 15.08Q31.90 15.07 32.14 14.99Q32.38 14.92 32.55 14.78Q32.72 14.63 32.83 14.36Q32.94 14.10 32.98 13.69Q33.03 13.28 33.03 12.69L33.03 12.69ZM45.06 16.19L43.75 16.19L43.75 11.74Q43.75 11.03 43.64 10.54Q43.53 10.06 43.20 9.75Q42.88 9.45 42.27 9.32Q41.67 9.19 40.69 9.19L40.69 9.19Q39.62 9.19 38.94 9.34Q38.26 9.50 37.87 9.77Q37.48 10.05 37.33 10.44Q37.19 10.83 37.19 11.31L37.19 11.31L37.19 16.19L35.88 16.19L35.88 5.69L37.19 5.69L37.19 9.56Q37.32 9.24 37.58 9.00Q37.83 8.77 38.16 8.61Q38.49 8.44 38.88 8.34Q39.26 8.24 39.65 8.19Q40.04 8.13 40.42 8.11Q40.80 8.09 41.13 8.09L41.13 8.09Q42 8.09 42.63 8.20Q43.26 8.31 43.71 8.51Q44.15 8.72 44.41 9.03Q44.68 9.34 44.83 9.74Q44.97 10.15 45.02 10.65Q45.07 11.16 45.07 11.74L45.07 11.74L45.06 16.19ZM51.41 16.34L51.41 16.34Q50.10 16.34 49.18 16.16Q48.27 15.98 47.69 15.53Q47.12 15.09 46.86 14.34Q46.60 13.60 46.60 12.47L46.60 12.47Q46.60 11.18 46.86 10.33Q47.12 9.49 47.69 8.99Q48.27 8.49 49.18 8.29Q50.10 8.09 51.41 8.09L51.41 8.09Q52.35 8.09 53.04 8.23Q53.72 8.37 54.21 8.63Q54.70 8.89 55.01 9.26Q55.31 9.63 55.48 10.03Q55.66 10.44 55.72 10.99Q55.79 11.53 55.79 12.14L55.79 12.14L55.68 12.58L47.91 12.58Q47.91 13.48 48.09 14.06Q48.27 14.64 48.68 14.90Q49.09 15.17 49.76 15.24Q50.43 15.31 51.41 15.31L51.41 15.31Q52.32 15.31 52.91 15.26Q53.50 15.21 53.85 15.07Q54.20 14.92 54.34 14.67Q54.48 14.41 54.48 14L54.48 14L55.79 14Q55.79 14.64 55.57 15.08Q55.34 15.53 54.83 15.81Q54.32 16.08 53.48 16.21Q52.64 16.34 51.41 16.34ZM51.41 9.19L51.41 9.19Q50.76 9.19 50.24 9.21Q49.72 9.24 49.34 9.33Q48.95 9.43 48.68 9.60Q48.41 9.78 48.24 10.01Q48.07 10.25 47.99 10.67Q47.91 11.10 47.91 11.70L47.91 11.70L54.48 11.70Q54.48 10.90 54.30 10.45Q54.13 9.99 53.76 9.70Q53.40 9.41 52.81 9.30Q52.23 9.19 51.41 9.19ZM65.41 10.88L64.32 10.88Q64.32 10.38 64.25 10.06Q64.18 9.73 63.91 9.54Q63.64 9.34 63.12 9.27Q62.60 9.19 61.69 9.19L61.69 9.19Q60.81 9.19 60.26 9.34Q59.71 9.50 59.39 9.78Q59.08 10.06 58.96 10.45Q58.85 10.83 58.85 11.31L58.85 11.31L58.85 16.19L57.54 16.19L57.54 8.31L58.85 8.31L58.85 9.56Q58.92 9.35 59.10 9.10Q59.29 8.84 59.66 8.62Q60.04 8.39 60.64 8.24Q61.24 8.09 62.13 8.09L62.13 8.09Q63.16 8.09 63.80 8.27Q64.44 8.46 64.80 8.81Q65.16 9.16 65.29 9.68Q65.41 10.20 65.41 10.88L65.41 10.88Z"></path></g><!----><g data-v-423bf9ae="" id="1d9a9968-5809-4005-b388-d9ca07c37f50" transform="matrix(1.5519946813583374,0,0,1.5519946813583374,0.1918604075908661,-29.76839256286621)" stroke="none" fill="white"><path d="M96.897 37.513a3.479 3.479 0 10-3.478-3.479c0 .422.079.825.217 1.2l-10.153 8.649-12.864-7.567c.073-.297.116-.607.116-.927a3.878 3.878 0 00-3.878-3.878 3.85 3.85 0 00-2.314.772L52.92 23.054a2.86 2.86 0 00.086-.684 2.86 2.86 0 10-4.998 1.898l-5.835 12.488a4.676 4.676 0 00-.8-.074c-.86 0-1.662.239-2.351.647l-15.438-6.915c.036-.225.06-.454.06-.689a4.309 4.309 0 10-.963 2.713l14.682 6.576a4.598 4.598 0 00-.607 2.284c0 .852.293 1.605.694 2.29l-8.233 8.237a6.847 6.847 0 00-4.003-1.294c-2.642 0-4.915 1.501-6.082 3.684l-.096-.032-.005.035-11.478-5.216a3.6 3.6 0 10-3.576 3.192 3.584 3.584 0 002.657-1.177l11.723 5.329c-.005.013-.009.025-.015.037l.056.019c-.054.348-.108.694-.108 1.055a6.9 6.9 0 002.115 4.975l-.017.013.012.014-5.973 8.802a2.677 2.677 0 101.82 1.264l5.364-7.904.71-.877a6.88 6.88 0 002.894.641 6.914 6.914 0 004.883-2.016l6.993 4.991c-.199.514-.334 1.06-.334 1.641a4.614 4.614 0 009.088 1.135l15.916-4.923a5.786 5.786 0 005.099 3.05 5.757 5.757 0 003.403-1.114l7.12 6.611a3.14 3.14 0 103.081-2.542 3.12 3.12 0 00-1.883.631l-6.811-6.323c.552-.887.893-1.93.893-3.05 0-2.815-1.661-5.16-4.661-5.677V39.104c1-.172 1.082-.478 1.513-.878l13.332 7.848 11.179 15.655c-.092.23-.146.481-.146.745a2.035 2.035 0 104.072 0 2.038 2.038 0 00-2.038-2.037c-.03 0-.06.003-.09.005l-10.73-15.02 9.931-8.459c.54.347 1.182.55 1.872.55zM61.07 62.474c0 .21.013.416.035.62L45.83 67.818a4.613 4.613 0 00-4.458-3.435c-1.123 0-2.114.451-2.913 1.113l-7.038-5.022c.447-.92.717-1.93.717-3.017a6.88 6.88 0 00-1.29-3.999l8.233-8.237c.686.401 1.438.694 2.291.694a4.605 4.605 0 003.897-2.147l17.222 14.914a5.768 5.768 0 00-1.421 3.792zM66 56.797c-1 .1-1.135.273-1.596.502l-18.36-15.846c.002-.052-.023-.102-.023-.154a4.617 4.617 0 00-1.806-3.646l5.799-12.428c.046.002.088.007.134.007.53 0 1.023-.147 1.449-.399l11.621 9.229c-.151.415-.113.861-.113 1.328 0 1.757.895 3.238 2.895 3.715v17.692z"></path></g><!----></svg>